<?xml version="1.0" encoding="utf-8"?>
<!-- Generator: Adobe Illustrator 16.0.0, SVG Export Plug-In . SVG Version: 6.00 Build 0)  -->
<!DOCTYPE svg PUBLIC "-//W3C//DTD SVG 1.1//EN" "http://www.w3.org/Graphics/SVG/1.1/DTD/svg11.dtd">
<svg version="1.1" xmlns="http://www.w3.org/2000/svg" xmlns:xlink="http://www.w3.org/1999/xlink" x="0px" y="0px" width="612px"
	 height="792px" viewBox="0 0 612 792" enable-background="new 0 0 612 792" xml:space="preserve">
<g id="Layer_2">
	<g id="XMLID_3_">
		<g>
			<path fill="#EA72AC" d="M332.729,125.534c141.847,0,256.831,114.985,256.831,256.831c0,141.847-114.984,256.831-256.831,256.831
				c-141.846,0-256.831-114.984-256.831-256.831C75.898,240.519,190.883,125.534,332.729,125.534z"/>
		</g>
		<g>
			<path fill="none" stroke="#D2A2CB" stroke-miterlimit="10" d="M589.561,382.365c0,141.847-114.984,256.831-256.831,256.831
				c-141.846,0-256.831-114.984-256.831-256.831c0-141.846,114.985-256.831,256.831-256.831
				C474.576,125.534,589.561,240.519,589.561,382.365z"/>
		</g>
	</g>
	<g id="XMLID_1_">
		<g>
			<circle fill="#E5AACD" cx="332.729" cy="382.364" r="228.857"/>
		</g>
		<g>
			<circle fill="none" stroke="#D2A2CB" stroke-miterlimit="10" cx="332.729" cy="382.364" r="228.858"/>
		</g>
	</g>
</g>
<g id="Layer_1">
	<g id="XMLID_4_">
		<g>
			<polygon fill="#8E51A0" points="601.176,453.127 434.599,611.223 409.131,574.06 380.909,532.853 251.845,344.502 
				291.194,344.502 380.45,474.77 409.131,516.632 439.189,560.506 552.317,453.127 			"/>
			<polygon fill="#8E51A0" points="579.577,427.244 552.317,453.127 449.376,453.127 476.636,427.244 			"/>
			<polygon fill="#8E51A0" points="494.955,102.704 494.955,140.02 409.131,226.041 409.131,188.506 			"/>
			<polygon fill="#712776" points="409.131,574.06 409.131,689.286 380.45,594.937 380.45,533.158 380.909,532.853 			"/>
			<polygon fill="#712776" points="409.131,226.041 409.131,516.632 380.45,474.77 380.45,255.246 380.45,215.897 380.45,175.936 
				409.131,102.704 409.131,188.506 			"/>
			<polygon fill="#712776" points="409.131,102.704 380.45,175.936 55.822,500.564 11.27,500.564 			"/>
			<polygon fill="#712776" points="380.45,594.937 409.131,689.286 266.207,500.564 308.988,500.564 			"/>
			<polygon fill="#8E51A0" points="380.45,215.897 380.45,255.246 291.194,344.502 251.845,344.502 			"/>
		</g>
		<g>
		</g>
	</g>
</g>
</svg>
